<svg xmlns="http://www.w3.org/2000/svg" viewBox="0 0 760 160" width="760" height="160" role="img" aria-label="Weekly contribution activity for alphacodeke">
  <rect x="1" y="1" width="758" height="158" rx="16" fill="#111111" stroke="#27272A" stroke-width="1.5"/>
  <text x="24" y="30" font-family="Inter, Arial, sans-serif" font-size="16" font-weight="700" fill="#FFFFFF">Contribution Activity, Last 52 Weeks</text>
  <rect x="24.0" y="82.0" width="11.4" height="38.0" rx="1.5" fill="#F7C200" opacity="0.85"/><rect x="37.4" y="120.0" width="11.4" height="0.0" rx="1.5" fill="#F7C200" opacity="0.85"/><rect x="50.9" y="86.1" width="11.4" height="33.9" rx="1.5" fill="#F7C200" opacity="0.85"/><rect x="64.3" y="96.9" width="11.4" height="23.1" rx="1.5" fill="#F7C200" opacity="0.85"/><rect x="77.7" y="120.0" width="11.4" height="0.0" rx="1.5" fill="#F7C200" opacity="0.85"/><rect x="91.2" y="120.0" width="11.4" height="0.0" rx="1.5" fill="#F7C200" opacity="0.85"/><rect x="104.6" y="117.3" width="11.4" height="2.7" rx="1.5" fill="#F7C200" opacity="0.85"/><rect x="118.0" y="120.0" width="11.4" height="0.0" rx="1.5" fill="#F7C200" opacity="0.85"/><rect x="131.5" y="120.0" width="11.4" height="0.0" rx="1.5" fill="#F7C200" opacity="0.85"/><rect x="144.9" y="120.0" width="11.4" height="0.0" rx="1.5" fill="#F7C200" opacity="0.85"/><rect x="158.3" y="120.0" width="11.4" height="0.0" rx="1.5" fill="#F7C200" opacity="0.85"/><rect x="171.8" y="120.0" width="11.4" height="0.0" rx="1.5" fill="#F7C200" opacity="0.85"/><rect x="185.2" y="120.0" width="11.4" height="0.0" rx="1.5" fill="#F7C200" opacity="0.85"/><rect x="198.6" y="117.3" width="11.4" height="2.7" rx="1.5" fill="#F7C200" opacity="0.85"/><rect x="212.1" y="118.6" width="11.4" height="1.4" rx="1.5" fill="#F7C200" opacity="0.85"/><rect x="225.5" y="120.0" width="11.4" height="0.0" rx="1.5" fill="#F7C200" opacity="0.85"/><rect x="238.9" y="120.0" width="11.4" height="0.0" rx="1.5" fill="#F7C200" opacity="0.85"/><rect x="252.4" y="120.0" width="11.4" height="0.0" rx="1.5" fill="#F7C200" opacity="0.85"/><rect x="265.8" y="113.2" width="11.4" height="6.8" rx="1.5" fill="#F7C200" opacity="0.85"/><rect x="279.2" y="120.0" width="11.4" height="0.0" rx="1.5" fill="#F7C200" opacity="0.85"/><rect x="292.7" y="120.0" width="11.4" height="0.0" rx="1.5" fill="#F7C200" opacity="0.85"/><rect x="306.1" y="120.0" width="11.4" height="0.0" rx="1.5" fill="#F7C200" opacity="0.85"/><rect x="319.5" y="120.0" width="11.4" height="0.0" rx="1.5" fill="#F7C200" opacity="0.85"/><rect x="333.0" y="120.0" width="11.4" height="0.0" rx="1.5" fill="#F7C200" opacity="0.85"/><rect x="346.4" y="120.0" width="11.4" height="0.0" rx="1.5" fill="#F7C200" opacity="0.85"/><rect x="359.8" y="120.0" width="11.4" height="0.0" rx="1.5" fill="#F7C200" opacity="0.85"/><rect x="373.3" y="120.0" width="11.4" height="0.0" rx="1.5" fill="#F7C200" opacity="0.85"/><rect x="386.7" y="120.0" width="11.4" height="0.0" rx="1.5" fill="#F7C200" opacity="0.85"/><rect x="400.2" y="118.6" width="11.4" height="1.4" rx="1.5" fill="#F7C200" opacity="0.85"/><rect x="413.6" y="120.0" width="11.4" height="0.0" rx="1.5" fill="#F7C200" opacity="0.85"/><rect x="427.0" y="120.0" width="11.4" height="0.0" rx="1.5" fill="#F7C200" opacity="0.85"/><rect x="440.5" y="120.0" width="11.4" height="0.0" rx="1.5" fill="#F7C200" opacity="0.85"/><rect x="453.9" y="40.0" width="11.4" height="80.0" rx="1.5" fill="#F7C200" opacity="0.85"/><rect x="467.3" y="53.6" width="11.4" height="66.4" rx="1.5" fill="#F7C200" opacity="0.85"/><rect x="480.8" y="42.7" width="11.4" height="77.3" rx="1.5" fill="#F7C200" opacity="0.85"/><rect x="494.2" y="83.4" width="11.4" height="36.6" rx="1.5" fill="#F7C200" opacity="0.85"/><rect x="507.6" y="94.2" width="11.4" height="25.8" rx="1.5" fill="#F7C200" opacity="0.85"/><rect x="521.1" y="105.1" width="11.4" height="14.9" rx="1.5" fill="#F7C200" opacity="0.85"/><rect x="534.5" y="87.5" width="11.4" height="32.5" rx="1.5" fill="#F7C200" opacity="0.85"/><rect x="547.9" y="105.1" width="11.4" height="14.9" rx="1.5" fill="#F7C200" opacity="0.85"/><rect x="561.4" y="102.4" width="11.4" height="17.6" rx="1.5" fill="#F7C200" opacity="0.85"/><rect x="574.8" y="86.1" width="11.4" height="33.9" rx="1.5" fill="#F7C200" opacity="0.85"/><rect x="588.2" y="107.8" width="11.4" height="12.2" rx="1.5" fill="#F7C200" opacity="0.85"/><rect x="601.7" y="105.1" width="11.4" height="14.9" rx="1.5" fill="#F7C200" opacity="0.85"/><rect x="615.1" y="95.6" width="11.4" height="24.4" rx="1.5" fill="#F7C200" opacity="0.85"/><rect x="628.5" y="78.0" width="11.4" height="42.0" rx="1.5" fill="#F7C200" opacity="0.85"/><rect x="642.0" y="90.2" width="11.4" height="29.8" rx="1.5" fill="#F7C200" opacity="0.85"/><rect x="655.4" y="56.3" width="11.4" height="63.7" rx="1.5" fill="#F7C200" opacity="0.85"/><rect x="668.8" y="102.4" width="11.4" height="17.6" rx="1.5" fill="#F7C200" opacity="0.85"/><rect x="682.3" y="101.0" width="11.4" height="19.0" rx="1.5" fill="#F7C200" opacity="0.85"/><rect x="695.7" y="87.5" width="11.4" height="32.5" rx="1.5" fill="#F7C200" opacity="0.85"/><rect x="709.1" y="75.3" width="11.4" height="44.7" rx="1.5" fill="#F7C200" opacity="0.85"/><rect x="722.6" y="86.1" width="11.4" height="33.9" rx="1.5" fill="#F7C200" opacity="0.85"/>
</svg>
