<svg xmlns="http://www.w3.org/2000/svg" viewBox="0 0 1200 300" width="1200" height="300" role="img" aria-label="Animated network of connected systems">
  <rect x="0" y="0" width="1200" height="300" fill="#000000"/><g><line x1="0" y1="0" x2="0" y2="300" stroke="#27272A" stroke-width="1" opacity="0.14"/><line x1="80" y1="0" x2="80" y2="300" stroke="#27272A" stroke-width="1" opacity="0.14"/><line x1="160" y1="0" x2="160" y2="300" stroke="#27272A" stroke-width="1" opacity="0.14"/><line x1="240" y1="0" x2="240" y2="300" stroke="#27272A" stroke-width="1" opacity="0.14"/><line x1="320" y1="0" x2="320" y2="300" stroke="#27272A" stroke-width="1" opacity="0.14"/><line x1="400" y1="0" x2="400" y2="300" stroke="#27272A" stroke-width="1" opacity="0.14"/><line x1="480" y1="0" x2="480" y2="300" stroke="#27272A" stroke-width="1" opacity="0.14"/><line x1="560" y1="0" x2="560" y2="300" stroke="#27272A" stroke-width="1" opacity="0.14"/><line x1="640" y1="0" x2="640" y2="300" stroke="#27272A" stroke-width="1" opacity="0.14"/><line x1="720" y1="0" x2="720" y2="300" stroke="#27272A" stroke-width="1" opacity="0.14"/><line x1="800" y1="0" x2="800" y2="300" stroke="#27272A" stroke-width="1" opacity="0.14"/><line x1="880" y1="0" x2="880" y2="300" stroke="#27272A" stroke-width="1" opacity="0.14"/><line x1="960" y1="0" x2="960" y2="300" stroke="#27272A" stroke-width="1" opacity="0.14"/><line x1="1040" y1="0" x2="1040" y2="300" stroke="#27272A" stroke-width="1" opacity="0.14"/><line x1="1120" y1="0" x2="1120" y2="300" stroke="#27272A" stroke-width="1" opacity="0.14"/><line x1="1200" y1="0" x2="1200" y2="300" stroke="#27272A" stroke-width="1" opacity="0.14"/><line x1="0" y1="0" x2="1200" y2="0" stroke="#27272A" stroke-width="1" opacity="0.14"/><line x1="0" y1="80" x2="1200" y2="80" stroke="#27272A" stroke-width="1" opacity="0.14"/><line x1="0" y1="160" x2="1200" y2="160" stroke="#27272A" stroke-width="1" opacity="0.14"/><line x1="0" y1="240" x2="1200" y2="240" stroke="#27272A" stroke-width="1" opacity="0.14"/></g><g><path id="hero-edge-0" d="M 80 70 L 155.0 70 L 155.0 190 L 230 190" fill="none" stroke="#71717A" stroke-width="1" opacity="0.32"/><path id="hero-edge-1" d="M 230 190 L 300.0 190 L 300.0 90 L 370 90" fill="none" stroke="#71717A" stroke-width="1" opacity="0.32"/><path id="hero-edge-2" d="M 370 90 L 500.0 90 L 500.0 60 L 630 60" fill="none" stroke="#71717A" stroke-width="1" opacity="0.32"/><path id="hero-edge-3" d="M 230 190 L 375.0 190 L 375.0 215 L 520 215" fill="none" stroke="#71717A" stroke-width="1" opacity="0.32"/><path id="hero-edge-4" d="M 520 215 L 645.0 215 L 645.0 175 L 770 175" fill="none" stroke="#71717A" stroke-width="1" opacity="0.32"/><path id="hero-edge-5" d="M 630 60 L 767.5 60 L 767.5 85 L 905 85" fill="none" stroke="#71717A" stroke-width="1" opacity="0.32"/><path id="hero-edge-6" d="M 770 175 L 837.5 175 L 837.5 85 L 905 85" fill="none" stroke="#71717A" stroke-width="1" opacity="0.32"/><path id="hero-edge-7" d="M 905 85 L 945.0 85 L 945.0 235 L 985 235" fill="none" stroke="#71717A" stroke-width="1" opacity="0.32"/><path id="hero-edge-8" d="M 905 85 L 995.0 85 L 995.0 115 L 1085 115" fill="none" stroke="#71717A" stroke-width="1" opacity="0.32"/><path id="hero-edge-9" d="M 520 215 L 340.0 215 L 340.0 255 L 160 255" fill="none" stroke="#71717A" stroke-width="1" opacity="0.32"/></g><g><circle cx="80" cy="70" r="4.2" fill="#F7C200" opacity="0.35"><animate attributeName="opacity" values="0.3;0.9;0.3" dur="3.4s" begin="0.0s" repeatCount="indefinite"/></circle><circle cx="230" cy="190" r="3.2" fill="#F7C200" opacity="0.35"><animate attributeName="opacity" values="0.3;0.9;0.3" dur="4.1s" begin="0.35s" repeatCount="indefinite"/></circle><circle cx="370" cy="90" r="3.2" fill="#F7C200" opacity="0.35"><animate attributeName="opacity" values="0.3;0.9;0.3" dur="3.7s" begin="0.7s" repeatCount="indefinite"/></circle><circle cx="520" cy="215" r="4.2" fill="#F7C200" opacity="0.35"><animate attributeName="opacity" values="0.3;0.9;0.3" dur="4.6s" begin="1.05s" repeatCount="indefinite"/></circle><circle cx="630" cy="60" r="3.2" fill="#F7C200" opacity="0.35"><animate attributeName="opacity" values="0.3;0.9;0.3" dur="3.2s" begin="1.4s" repeatCount="indefinite"/></circle><circle cx="770" cy="175" r="3.2" fill="#F7C200" opacity="0.35"><animate attributeName="opacity" values="0.3;0.9;0.3" dur="4.3s" begin="1.75s" repeatCount="indefinite"/></circle><circle cx="905" cy="85" r="4.2" fill="#F7C200" opacity="0.35"><animate attributeName="opacity" values="0.3;0.9;0.3" dur="3.9s" begin="2.1s" repeatCount="indefinite"/></circle><circle cx="985" cy="235" r="3.2" fill="#F7C200" opacity="0.35"><animate attributeName="opacity" values="0.3;0.9;0.3" dur="4.8s" begin="2.45s" repeatCount="indefinite"/></circle><circle cx="1085" cy="115" r="3.2" fill="#F7C200" opacity="0.35"><animate attributeName="opacity" values="0.3;0.9;0.3" dur="3.5s" begin="2.8s" repeatCount="indefinite"/></circle><circle cx="160" cy="255" r="4.2" fill="#F7C200" opacity="0.35"><animate attributeName="opacity" values="0.3;0.9;0.3" dur="4.0s" begin="3.15s" repeatCount="indefinite"/></circle></g><g><circle r="2.6" fill="#F7C200" opacity="0.85"><animateMotion dur="7.0s" begin="0.0s" repeatCount="indefinite" path="M 80 70 L 155.0 70 L 155.0 190 L 230 190"/></circle><circle r="2.6" fill="#F7C200" opacity="0.85"><animateMotion dur="8.6s" begin="1.1s" repeatCount="indefinite" path="M 230 190 L 375.0 190 L 375.0 215 L 520 215"/></circle><circle r="2.6" fill="#F7C200" opacity="0.85"><animateMotion dur="10.2s" begin="2.2s" repeatCount="indefinite" path="M 770 175 L 837.5 175 L 837.5 85 L 905 85"/></circle><circle r="2.6" fill="#F7C200" opacity="0.85"><animateMotion dur="11.8s" begin="3.3000000000000003s" repeatCount="indefinite" path="M 520 215 L 340.0 215 L 340.0 255 L 160 255"/></circle></g>
</svg>
